<?xml version="1.0" encoding="UTF-8"?>
<svg version="1.1" xmlns="http://www.w3.org/2000/svg" width="48" height="48">
<path d="M0 0 C0.99 0 1.98 0 3 0 C3 0.66 3 1.32 3 2 C4.16015625 1.7834375 4.16015625 1.7834375 5.34375 1.5625 C11.32823915 0.49595738 16.92337435 -0.23371637 23 0 C22.67 1.32 22.34 2.64 22 4 C13.09 5.485 13.09 5.485 4 7 C3.67 7.99 3.34 8.98 3 10 C9.6 10 16.2 10 23 10 C23 10.99 23 11.98 23 13 C16.4 13 9.8 13 3 13 C3 13.66 3 14.32 3 15 C2.01 15 1.02 15 0 15 C0 14.34 0 13.68 0 13 C-0.99 13 -1.98 13 -3 13 C-3 16.63 -3 20.26 -3 24 C-0.03 24 2.94 24 6 24 C6 24.99 6 25.98 6 27 C-0.6 27 -7.2 27 -14 27 C-13.67 28.65 -13.34 30.3 -13 32 C-12.34 31.34 -11.68 30.68 -11 30 C-0.1070367 28.17301565 11.08212443 28.83764062 22 30 C22 29.01 22 28.02 22 27 C17.71 27 13.42 27 9 27 C9 26.01 9 25.02 9 24 C14.28 24 19.56 24 25 24 C28.4265002 31.99516714 28.4265002 31.99516714 27.625 35.5625 C27.49351563 36.26503906 27.36203125 36.96757813 27.2265625 37.69140625 C25.23023364 41.44882777 22.73040019 43.93421852 19 46 C15.23608207 46.77073766 11.63960415 46.70706258 7.8125 46.5625 C6.82830078 46.56056641 5.84410156 46.55863281 4.83007812 46.55664062 C-0.31385869 46.46222438 -2.94128667 46.29669886 -7 43 C-8.155 42.566875 -9.31 42.13375 -10.5 41.6875 C-14.71951715 39.65308995 -16.03811369 38.23767444 -18 34 C-18.3527607 30.96121854 -18.38995306 28.03651974 -18 25 C-17.67 24.67 -17.34 24.34 -17 24 C-15.35 24 -13.7 24 -12 24 C-12 20.37 -12 16.74 -12 13 C-13.32 13 -14.64 13 -16 13 C-16 10.69 -16 8.38 -16 6 C-14.68 5.67 -13.36 5.34 -12 5 C-12 4.01 -12 3.02 -12 2 C-11.01 2 -10.02 2 -9 2 C-9 2.66 -9 3.32 -9 4 C-8.01 4 -7.02 4 -6 4 C-6 3.01 -6 2.02 -6 1 C-5.01 1 -4.02 1 -3 1 C-3 1.66 -3 2.32 -3 3 C-2.01 3 -1.02 3 0 3 C0 2.01 0 1.02 0 0 Z M-2 7 C-2.33 7.99 -2.66 8.98 -3 10 C-2.01 10 -1.02 10 0 10 C0 9.01 0 8.02 0 7 C-0.66 7 -1.32 7 -2 7 Z M-8 8 C-8.33 8.66 -8.66 9.32 -9 10 C-8.01 10 -7.02 10 -6 10 C-6 9.34 -6 8.68 -6 8 C-6.66 8 -7.32 8 -8 8 Z M-9 13 C-9 16.63 -9 20.26 -9 24 C-8.01 24 -7.02 24 -6 24 C-6 20.37 -6 16.74 -6 13 C-6.99 13 -7.98 13 -9 13 Z M-12 34 C-11 36 -11 36 -11 36 Z " fill="#84B9E7" transform="translate(20,2)"/>
<path d="M0 0 C0.99 0 1.98 0 3 0 C3 0.66 3 1.32 3 2 C4.16015625 1.7834375 4.16015625 1.7834375 5.34375 1.5625 C11.32823915 0.49595738 16.92337435 -0.23371637 23 0 C22.67 1.32 22.34 2.64 22 4 C13.09 5.485 13.09 5.485 4 7 C3.67 7.99 3.34 8.98 3 10 C9.6 10 16.2 10 23 10 C23 10.99 23 11.98 23 13 C16.4 13 9.8 13 3 13 C3 13.66 3 14.32 3 15 C2.01 15 1.02 15 0 15 C0 14.34 0 13.68 0 13 C-0.99 13 -1.98 13 -3 13 C-3 16.63 -3 20.26 -3 24 C-0.03 24 2.94 24 6 24 C6 24.99 6 25.98 6 27 C-0.6 27 -7.2 27 -14 27 C-11.89442719 35.5527864 -11.89442719 35.5527864 -8 39 C-8 39.99 -8 40.98 -8 42 C-10.68184054 41.92337598 -12.43196239 41.51430432 -14.4453125 39.69140625 C-17.84467868 35.48590466 -18.50910042 32.16804798 -18.2734375 26.8203125 C-18 25 -18 25 -17 24 C-15.35 24 -13.7 24 -12 24 C-12 20.37 -12 16.74 -12 13 C-13.32 13 -14.64 13 -16 13 C-16 10.69 -16 8.38 -16 6 C-14.68 5.67 -13.36 5.34 -12 5 C-12 4.01 -12 3.02 -12 2 C-11.01 2 -10.02 2 -9 2 C-9 2.66 -9 3.32 -9 4 C-8.01 4 -7.02 4 -6 4 C-6 3.01 -6 2.02 -6 1 C-5.01 1 -4.02 1 -3 1 C-3 1.66 -3 2.32 -3 3 C-2.01 3 -1.02 3 0 3 C0 2.01 0 1.02 0 0 Z M-2 7 C-2.33 7.99 -2.66 8.98 -3 10 C-2.01 10 -1.02 10 0 10 C0 9.01 0 8.02 0 7 C-0.66 7 -1.32 7 -2 7 Z M-8 8 C-8.33 8.66 -8.66 9.32 -9 10 C-8.01 10 -7.02 10 -6 10 C-6 9.34 -6 8.68 -6 8 C-6.66 8 -7.32 8 -8 8 Z M-9 13 C-9 16.63 -9 20.26 -9 24 C-8.01 24 -7.02 24 -6 24 C-6 20.37 -6 16.74 -6 13 C-6.99 13 -7.98 13 -9 13 Z " fill="#18193E" transform="translate(20,2)"/>
<path d="M0 0 C2.64590014 -0.02684679 5.29153096 -0.04676357 7.9375 -0.0625 C8.69224609 -0.07087891 9.44699219 -0.07925781 10.22460938 -0.08789062 C12.14994313 -0.09652441 14.07535581 -0.05224333 16 0 C17 1 17 1 17.375 4.0625 C16.90543076 8.99297707 15.39498869 12.3811659 12 16 C6.41534418 20.01220854 2.33036178 20.53358486 -4.4375 20.25 C-5.26443359 20.23195313 -6.09136719 20.21390625 -6.94335938 20.1953125 C-8.96274933 20.1486214 -10.98153445 20.07689393 -13 20 C-13 19.01 -13 18.02 -13 17 C-11.75863281 16.96261719 -10.51726563 16.92523438 -9.23828125 16.88671875 C-7.59632489 16.8210405 -5.95439913 16.7545938 -4.3125 16.6875 C-3.49587891 16.66494141 -2.67925781 16.64238281 -1.83789062 16.61914062 C2.87089606 16.40943757 6.19469961 16.06315767 10 13 C12.29633824 9.55549263 12.54016485 7.06187717 13 3 C8.71 3 4.42 3 0 3 C0 2.01 0 1.02 0 0 Z " fill="#1A1D43" transform="translate(29,26)"/>
<path d="M0 0 C0.66 0.33 1.32 0.66 2 1 C1.84978008 2.37957067 1.65242279 3.7540188 1.4375 5.125 C1.33308594 5.89070313 1.22867188 6.65640625 1.12109375 7.4453125 C-0.64619493 11.47251389 -3.13271435 13.90775716 -7 16 C-10.80698937 16.74361121 -14.44882137 16.66236076 -18.3125 16.5 C-19.31345703 16.4896875 -20.31441406 16.479375 -21.34570312 16.46875 C-28.68993703 16.31006297 -28.68993703 16.31006297 -31 14 C-29.081875 13.97873047 -29.081875 13.97873047 -27.125 13.95703125 C-25.41663204 13.91009806 -23.70829983 13.86185088 -22 13.8125 C-21.16082031 13.80669922 -20.32164063 13.80089844 -19.45703125 13.79492188 C-13.18256179 13.57604503 -8.81583372 12.10958047 -4 8 C-2.29661666 5.89157946 -2.29661666 5.89157946 -1.5 3.6875 C-1.005 2.470625 -0.51 1.25375 0 0 Z " fill="#8DC7F5" transform="translate(46,32)"/>
<path d="M0 0 C0.66 0.33 1.32 0.66 2 1 C-0.73152399 5.72763768 -2.93126149 7.92642516 -8 10 C-6.5682479 4.98886765 -4.01554307 3.05530451 0 0 Z " fill="#21274E" transform="translate(43,35)"/>
<path d="M0 0 C2.64 0 5.28 0 8 0 C8 0.99 8 1.98 8 3 C2.25 4.125 2.25 4.125 0 3 C0 2.01 0 1.02 0 0 Z " fill="#2C365E" transform="translate(20,37)"/>
</svg>
